<svg width="16" height="12" viewBox="0 0 16 12" fill="none" xmlns="http://www.w3.org/2000/svg">
<path d="M13.5396 1.14375C12.5283 0.680727 11.4606 0.352242 10.3639 0.166687C10.2138 0.434972 10.078 0.711002 9.95706 0.993621C8.78883 0.817582 7.60083 0.817582 6.4326 0.993621C6.3116 0.711031 6.17581 0.435005 6.02579 0.166687C4.92837 0.353809 3.85998 0.683074 2.84761 1.14617C0.837784 4.11975 0.292952 7.01946 0.565368 9.87801C1.74237 10.7476 3.05977 11.409 4.46031 11.8334C4.77567 11.4092 5.05472 10.9592 5.29451 10.4882C4.83907 10.3181 4.39949 10.1083 3.98086 9.86106C4.09104 9.78115 4.19879 9.69882 4.30291 9.61891C5.52103 10.1918 6.85055 10.4888 8.19665 10.4888C9.54274 10.4888 10.8723 10.1918 12.0904 9.61891C12.1957 9.70488 12.3035 9.78721 12.4124 9.86106C11.993 10.1087 11.5526 10.3189 11.0964 10.4894C11.3359 10.9602 11.6149 11.4098 11.9306 11.8334C13.3323 11.4107 14.6507 10.7497 15.8279 9.87922C16.1476 6.56422 15.2819 3.69114 13.5396 1.14375ZM5.63957 8.12002C4.88044 8.12002 4.25327 7.43111 4.25327 6.5836C4.25327 5.73608 4.85864 5.04112 5.63715 5.04112C6.41565 5.04112 7.03797 5.73608 7.02465 6.5836C7.01133 7.43111 6.41323 8.12002 5.63957 8.12002ZM10.7537 8.12002C9.99338 8.12002 9.36864 7.43111 9.36864 6.5836C9.36864 5.73608 9.97401 5.04112 10.7537 5.04112C11.5334 5.04112 12.1509 5.73608 12.1376 6.5836C12.1243 7.43111 11.5274 8.12002 10.7537 8.12002Z" fill="#818186"/>
</svg>
