<svg width="16" height="16" viewBox="0 0 16 16" fill="none" xmlns="http://www.w3.org/2000/svg">
<path d="M8 0.5C3.85625 0.5 0.5 3.94114 0.5 8.1897C0.5 11.5924 2.64687 14.4664 5.62812 15.4853C6.00312 15.5526 6.14375 15.3219 6.14375 15.12C6.14375 14.9374 6.13438 14.3319 6.13438 13.6878C4.25 14.0435 3.7625 13.2168 3.6125 12.7843C3.52813 12.5632 3.1625 11.8808 2.84375 11.6981C2.58125 11.5539 2.20625 11.1983 2.83437 11.1887C3.425 11.1791 3.84687 11.7462 3.9875 11.9769C4.6625 13.1399 5.74063 12.8131 6.17188 12.6113C6.2375 12.1115 6.43437 11.775 6.65 11.5828C4.98125 11.3905 3.2375 10.7273 3.2375 7.78599C3.2375 6.94974 3.52813 6.25767 4.00625 5.71939C3.93125 5.52714 3.66875 4.73895 4.08125 3.68161C4.08125 3.68161 4.70937 3.47976 6.14375 4.46981C6.74375 4.29679 7.38125 4.21028 8.01875 4.21028C8.65625 4.21028 9.29375 4.29679 9.89375 4.46981C11.3281 3.47015 11.9563 3.68161 11.9563 3.68161C12.3688 4.73895 12.1062 5.52714 12.0312 5.71939C12.5094 6.25767 12.8 6.94013 12.8 7.78599C12.8 10.7369 11.0469 11.3905 9.37813 11.5828C9.65 11.8231 9.88438 12.2845 9.88438 13.0054C9.88438 14.0339 9.875 14.8605 9.875 15.12C9.875 15.3219 10.0156 15.5622 10.3906 15.4853C11.8795 14.97 13.1733 13.9889 14.0898 12.6801C15.0064 11.3714 15.4996 9.80089 15.5 8.1897C15.5 3.94114 12.1438 0.5 8 0.5Z" fill="#818186"/>
</svg>
