<svg width="18" height="12" viewBox="0 0 18 12" fill="none" xmlns="http://www.w3.org/2000/svg">
<path d="M17.1673 2.69598C17.1673 2.69598 17.0045 1.5469 16.5032 1.04234C15.8684 0.378276 15.1588 0.37502 14.8333 0.335958C12.5026 0.166687 9.00321 0.166687 9.00321 0.166687H8.9967C8.9967 0.166687 5.49735 0.166687 3.16663 0.335958C2.84111 0.37502 2.13147 0.378276 1.4967 1.04234C0.995402 1.5469 0.835897 2.69598 0.835897 2.69598C0.835897 2.69598 0.666626 4.0469 0.666626 5.39455V6.65757C0.666626 8.00523 0.832642 9.35614 0.832642 9.35614C0.832642 9.35614 0.995402 10.5052 1.49345 11.0098C2.12821 11.6738 2.96155 11.6511 3.33264 11.7227C4.66728 11.8496 8.99996 11.8887 8.99996 11.8887C8.99996 11.8887 12.5026 11.8822 14.8333 11.7162C15.1588 11.6771 15.8684 11.6738 16.5032 11.0098C17.0045 10.5052 17.1673 9.35614 17.1673 9.35614C17.1673 9.35614 17.3333 8.00848 17.3333 6.65757V5.39455C17.3333 4.0469 17.1673 2.69598 17.1673 2.69598ZM7.27795 8.19078V3.50653L11.7799 5.85679L7.27795 8.19078Z" fill="#818186"/>
</svg>
